name C:\Users\Nicos\Desktop\Gil_twoSteps\Study2\ExperimentalData\IK_Splined\twoSteps_IK_BSplines_120_meshInts_study2_p02_s_01_lowIK_modROI.mot
datacolumns 38
datarows 10
range 0.43700000 0.44483002
endheader
                time	         pelvis_tilt	         pelvis_list	     pelvis_rotation	           pelvis_tx	           pelvis_ty	           pelvis_tz	       hip_flexion_r	     hip_adduction_r	      hip_rotation_r	        knee_angle_r	       ankle_angle_r	    subtalar_angle_r	         mtp_angle_r	       hip_flexion_l	     hip_adduction_l	      hip_rotation_l	        knee_angle_l	       ankle_angle_l	    subtalar_angle_l	         mtp_angle_l	    lumbar_extension	      lumbar_bending	     lumbar_rotation	          arm_flex_r	           arm_add_r	           arm_rot_r	        elbow_flex_r	           pro_sup_r	        wrist_flex_r	         wrist_dev_r	          arm_flex_l	           arm_add_l	           arm_rot_l	        elbow_flex_l	           pro_sup_l	        wrist_flex_l	         wrist_dev_l	
          0.43700000	        -21.47911877	          1.40696109	        -11.36567865	         -0.86225648	          0.85366649	          0.34102501	         25.49610334	          1.62772818	         10.78601639	        -56.89169521	         18.80745450	        -16.02494282	         12.54686166	         53.38147355	         -3.63859668	        -14.77559949	       -110.56661203	         -5.95732398	        -14.41327032	         10.20986132	        -25.63504527	         -3.42794876	         -6.78260532	         32.75274813	          1.28062792	          9.83983668	         81.56164977	         71.96220401	         -5.49853529	         10.71142497	        -43.70920790	         -9.81993644	        -17.01459696	         37.21575412	         71.15381170	        -10.39570682	         19.43180529	
          0.43756335	        -21.45672000	          1.49384962	        -11.43698669	         -0.85976674	          0.85359018	          0.34116576	         25.26313026	          1.49264012	         10.82856176	        -56.73388404	         18.74330548	        -15.96194136	         12.68204536	         53.77243738	         -3.58793548	        -14.73745827	       -110.71513518	         -5.82525254	        -14.43678778	         10.18896355	        -25.59340423	         -3.59160406	         -6.78230194	         33.23912628	          1.43889921	          9.93424636	         81.76672978	         71.95063605	         -5.51434558	         10.71619793	        -44.17543948	         -9.75951071	        -17.07053796	         37.34306279	         71.39693506	        -10.33823763	         19.50945322	
          0.43934331	        -21.39133457	          1.77391571	        -11.65080407	         -0.85187820	          0.85333229	          0.34159271	         24.52729578	          1.04941523	         10.95329510	        -56.22124991	         18.54128222	        -15.74946164	         13.11577889	         55.01467478	         -3.41815027	        -14.61164553	       -111.16537206	         -5.42067293	        -14.52991232	         10.10128106	        -25.44985969	         -4.10990497	         -6.77197763	         34.75511235	          1.91956667	         10.22361057	         82.43749664	         71.91548662	         -5.56493809	         10.73047437	        -45.64937418	         -9.57048836	        -17.24131640	         37.77469434	         72.16551882	        -10.15352146	         19.74832241	
          0.44063333	        -21.34394682	          1.97689217	        -11.80576712	         -0.84616103	          0.85314538	          0.34190215	         23.99400351	          0.72819026	         11.04369494	        -55.84972095	         18.39486690	        -15.59546805	         13.43012504	         55.91497996	         -3.29509930	        -14.52046339	       -111.49167894	         -5.12745593	        -14.59740384	         10.03773363	        -25.34582652	         -4.48554089	         -6.76449514	         35.85381549	          2.26792794	         10.43332579	         82.92363148	         71.89001225	         -5.60160475	         10.74082114	        -46.71760078	         -9.43349538	        -17.36508719	         38.08751709	         72.72254596	        -10.01964937	         19.92144162	
          0.44063333	        -21.34394682	          1.97689217	        -11.80576712	         -0.84616103	          0.85314538	          0.34190215	         23.99400351	          0.72819026	         11.04369494	        -55.84972095	         18.39486690	        -15.59546805	         13.43012504	         55.91497996	         -3.29509930	        -14.52046339	       -111.49167894	         -5.12745593	        -14.59740384	         10.03773363	        -25.34582652	         -4.48554089	         -6.76449514	         35.85381549	          2.26792794	         10.43332579	         82.92363148	         71.89001225	         -5.60160475	         10.74082114	        -46.71760078	         -9.43349538	        -17.36508719	         38.08751709	         72.72254596	        -10.01964937	         19.92144162	
          0.44119669	        -21.32718115	          2.06921174	        -11.86497961	         -0.84364423	          0.85305125	          0.34202434	         23.76061123	          0.57706225	         11.07618765	        -55.67616045	         18.32933380	        -15.51908339	         13.57265470	         56.31174309	         -3.23491234	        -14.47757870	       -111.61910191	         -5.00775471	        -14.63680098	         10.00194702	        -25.29197292	         -4.65024048	         -6.75499242	         36.32035176	          2.40100117	         10.52512966	         83.15169649	         71.87648149	         -5.61915435	         10.74459647	        -47.18422238	         -9.37462744	        -17.42318007	         38.24169760	         72.95794073	         -9.95811180	         19.99237089	
          0.44297665	        -21.28124833	          2.36749760	        -12.03690701	         -0.83565614	          0.85273145	          0.34238722	         23.02228526	          0.08011879	         11.16633460	        -55.10750674	         18.11942063	        -15.26136856	         14.03240603	         57.57180228	         -3.03318706	        -14.33658753	       -111.99469198	         -4.64450489	        -14.77906240	          9.87447684	        -25.10672527	         -5.17180507	         -6.71379466	         37.77064006	          2.78731009	         10.81558857	         83.90054721	         71.82941820	         -5.67735862	         10.75519336	        -48.65878248	         -9.19034365	        -17.61397305	         38.76033077	         73.68760848	         -9.75816698	         20.20810641	
          0.44426667	        -21.24795876	          2.58367875	        -12.16151051	         -0.82986682	          0.85249968	          0.34265021	         22.48718730	         -0.28003843	         11.23166815	        -54.69537789	         17.96728714	        -15.07459106	         14.36560845	         58.48502371	         -2.88698770	        -14.23440490	       -112.26689896	         -4.38124144	        -14.88216564	          9.78209349	        -24.97246798	         -5.54980633	         -6.68393680	         38.82172906	          3.06728550	         11.02609718	         84.44327294	         71.79530933	         -5.71954186	         10.76287340	        -49.72746234	         -9.05678492	        -17.75224929	         39.13620751	         74.21643144	         -9.61325800	         20.36445962	
          0.44426667	        -21.24795876	          2.58367875	        -12.16151051	         -0.82986682	          0.85249968	          0.34265021	         22.48718730	         -0.28003843	         11.23166815	        -54.69537789	         17.96728714	        -15.07459106	         14.36560845	         58.48502371	         -2.88698770	        -14.23440490	       -112.26689896	         -4.38124144	        -14.88216564	          9.78209349	        -24.97246798	         -5.54980633	         -6.68393680	         38.82172906	          3.06728550	         11.02609718	         84.44327294	         71.79530933	         -5.71954186	         10.76287340	        -49.72746234	         -9.05678492	        -17.75224929	         39.13620751	         74.21643144	         -9.61325800	         20.36445962	
          0.44483002	        -21.23601618	          2.68105541	        -12.20925849	         -0.82731906	          0.85238912	          0.34275430	         22.25204023	         -0.44558481	         11.25447463	        -54.50560791	         17.89763910	        -14.98599940	         14.51589988	         58.88472862	         -2.81850949	        -14.18861547	       -112.37280057	         -4.27184933	        -14.93282808	          9.73995332	        -24.90802886	         -5.71562057	         -6.66673493	         39.27190481	          3.17108498	         11.12303216	         84.69233446	         71.77373903	         -5.74025597	         10.76539092	        -50.19362626	         -8.99842492	        -17.82211266	         39.31265880	         74.43326546	         -9.54719568	         20.42889383	
